# xmcd CD database file
#
# Track frame offsets:
#	150
#	20795
#	44910
#	61140
#	76577
#	85100
#
# Disc length: 1431 seconds
#
# Revision: 0
# Processed by: cddbd v1.5.2PL0 Copyright (c) Steve Scherf et al.
# Submitted via: CDex 1.70beta2
#
DISCID=43059506
DTITLE=Various Artist - Planeta Meditação 14 - Queremos paz
DYEAR=1998
DGENRE=New Age
TTITLE0=Meditação pela Paz
TTITLE1=Daudreams
TTITLE2=Momentum
TTITLE3=Deep Forest
TTITLE4=Tutu Evora
TTITLE5=Khinea la Layla
EXTD=YEAR: 1998
EXTT0=
EXTT1=
EXTT2=
EXTT3=
EXTT4=
EXTT5=
PLAYORDER=
